<?xml version="1.0" standalone="no"?>
<!DOCTYPE svg PUBLIC "-//W3C//DTD SVG 20010904//EN"
 "http://www.w3.org/TR/2001/REC-SVG-20010904/DTD/svg10.dtd">
<svg version="1.0" xmlns="http://www.w3.org/2000/svg"
 width="896.000000pt" height="896.000000pt" viewBox="0 0 896.000000 896.000000"
 preserveAspectRatio="xMidYMid meet">
<metadata>
Created by potrace 1.14, written by Peter Selinger 2001-2017
</metadata>
<g transform="translate(0.000000,896.000000) scale(0.100000,-0.100000)"
fill="#000000" stroke="none">
<path d="M10 7380 l0 -1579 53 5 c80 8 95 13 117 36 19 21 20 34 20 334 0 198
4 315 10 319 7 4 10 -100 10 -305 0 -342 -2 -355 -60 -385 -16 -8 -55 -15 -90
-15 l-60 0 0 -1320 0 -1320 60 0 c35 0 74 -7 90 -15 58 -30 60 -44 60 -380 0
-197 -4 -305 -10 -305 -6 0 -10 111 -10 314 l0 314 -31 26 c-22 19 -42 26 -72
26 -23 0 -52 3 -65 6 l-22 6 0 -1571 0 -1571 1575 0 1575 0 -6 48 c-9 77 -13
90 -36 112 -21 19 -35 20 -327 21 -168 0 -326 4 -351 8 -27 5 91 9 298 10 377
1 387 0 417 -59 8 -16 15 -54 15 -85 l0 -55 1320 0 1320 0 0 51 c0 28 7 66 16
85 30 64 34 64 426 63 209 -1 331 -5 298 -9 -30 -5 -193 -8 -361 -9 l-306 -1
-24 -26 c-18 -19 -25 -40 -29 -90 l-5 -64 1567 0 1568 0 0 1571 c0 1429 -1
1571 -16 1565 -9 -3 -36 -6 -61 -6 -36 0 -50 -6 -74 -29 l-29 -29 0 -311 c0
-201 -4 -311 -10 -311 -6 0 -10 109 -10 306 0 265 2 310 16 334 25 41 64 60
128 60 l56 0 0 1320 0 1320 -56 0 c-69 0 -117 26 -133 72 -14 41 -15 628 -1
628 6 0 10 -110 10 -311 l0 -311 29 -29 c24 -23 38 -29 74 -29 25 0 52 -3 61
-6 15 -6 16 137 16 1575 l0 1581 -1571 0 -1571 0 6 -22 c3 -13 6 -44 6 -70 0
-35 6 -54 26 -77 l26 -31 291 -1 c161 -1 387 -5 502 -9 170 -5 116 -7 -283 -8
-546 -2 -535 -3 -566 62 -9 20 -16 59 -16 95 l0 61 -1314 0 c-1189 0 -1314 -2
-1320 -16 -3 -9 -6 -38 -6 -65 0 -28 -7 -63 -15 -79 -32 -63 6 -60 -887 -58
l-813 1 815 9 c568 6 822 12 837 19 27 15 40 47 48 127 l6 62 -985 0 c-778 0
-985 -3 -989 -12 -4 -10 -6 -10 -6 0 -1 9 -125 12 -586 12 l-585 0 0 -1580z
m3978 1488 c39 -39 -17 -100 -58 -63 -34 31 -20 75 25 75 12 0 26 -5 33 -12z
m1077 -8 c15 -47 -23 -82 -65 -60 -22 12 -27 49 -8 68 20 20 66 15 73 -8z
m-1517 -86 c4 -27 -26 -40 -46 -20 -21 20 -8 48 20 44 14 -2 24 -11 26 -24z
m1939 10 c8 -21 -19 -46 -40 -38 -17 6 -23 35 -10 47 12 13 44 7 50 -9z
m-2051 -21 c-10 -10 -19 5 -10 18 6 11 8 11 12 0 2 -7 1 -15 -2 -18z m184 12
c0 -8 -4 -15 -10 -15 -5 0 -10 7 -10 15 0 8 5 15 10 15 6 0 10 -7 10 -15z m90
0 c0 -8 -4 -15 -10 -15 -5 0 -10 7 -10 15 0 8 5 15 10 15 6 0 10 -7 10 -15z
m90 0 c0 -8 -4 -15 -10 -15 -5 0 -10 7 -10 15 0 8 5 15 10 15 6 0 10 -7 10
-15z m1400 0 c0 -8 -4 -15 -10 -15 -5 0 -10 7 -10 15 0 8 5 15 10 15 6 0 10
-7 10 -15z m90 0 c0 -8 -4 -15 -10 -15 -5 0 -10 7 -10 15 0 8 5 15 10 15 6 0
10 -7 10 -15z m90 0 c0 -8 -4 -15 -10 -15 -5 0 -10 7 -10 15 0 8 5 15 10 15 6
0 10 -7 10 -15z m180 0 c0 -8 -4 -15 -10 -15 -5 0 -10 7 -10 15 0 8 5 15 10
15 6 0 10 -7 10 -15z m1788 -32 c-81 -2 -216 -2 -300 0 -84 1 -18 3 147 3 165
0 234 -2 153 -3z m-5220 -565 c-1 -189 -4 -281 -5 -206 l-4 137 -32 6 c-79 17
-145 79 -167 156 -31 106 70 247 178 249 l32 0 -2 -342z m4821 323 c69 -35
121 -115 121 -185 0 -79 -58 -156 -145 -191 l-60 -24 -2 -131 c-1 -73 -4 -134
-7 -138 -3 -3 -6 151 -6 341 l0 347 30 0 c17 0 48 -9 69 -19z m-5755 -163 c-2
-176 -2 -177 -14 -158 -11 17 -14 269 -4 295 14 35 19 -7 18 -137z m6616 -1
c0 -78 -5 -149 -10 -157 -6 -10 -10 39 -10 148 0 106 3 161 10 157 6 -4 10
-64 10 -148z m-5096 96 c3 -10 5 -64 5 -121 0 -79 3 -105 15 -118 22 -22 20
-51 -4 -64 -49 -26 -88 24 -51 64 18 20 21 35 21 124 0 119 -2 121 -82 102
-131 -31 -232 -109 -289 -226 -65 -131 -48 -306 41 -422 26 -34 33 -49 21 -42
-26 13 -56 56 -87 125 -48 105 -41 252 17 367 47 93 164 181 282 213 73 19
105 19 111 -2z m3659 2 c137 -35 237 -115 295 -234 36 -74 37 -79 37 -186 0
-105 -2 -113 -33 -175 -34 -67 -72 -114 -107 -132 -11 -6 0 10 23 36 68 73 95
143 100 252 5 110 -10 165 -70 254 -66 99 -182 168 -290 173 l-43 2 -2 -100
c-2 -87 0 -104 18 -128 23 -31 18 -63 -10 -72 -48 -15 -76 33 -41 70 17 18 21
34 20 72 -2 26 -2 78 -1 116 1 78 3 78 104 52z m-5793 -25 c0 -27 -3 -30 -32
-29 -31 2 -31 2 -5 6 21 3 27 10 27 29 0 13 2 24 5 24 3 0 5 -13 5 -30z m7858
-23 c24 -4 24 -4 -5 -6 -31 -1 -33 1 -32 32 2 29 2 29 6 5 3 -20 11 -28 31
-31z m-4087 -317 c33 -18 21 -30 -31 -30 -51 0 -64 11 -32 29 22 13 39 13 63
1z m350 -10 l24 -19 -59 -1 c-58 0 -59 0 -41 20 23 25 46 25 76 0z m-1366 -40
c4 -6 -63 -11 -182 -12 l-187 -3 -12 -41 c-26 -88 -67 -138 -144 -173 -60 -27
-150 -27 -210 0 -52 23 -100 66 -100 88 0 10 11 5 33 -16 93 -90 231 -97 327
-16 34 29 80 113 80 149 0 11 3 24 7 27 10 11 381 8 388 -3z m910 0 c3 -5 1
-10 -4 -10 -6 0 -11 5 -11 10 0 6 2 10 4 10 3 0 8 -4 11 -10z m510 0 c3 -5 -1
-10 -10 -10 -9 0 -13 5 -10 10 3 6 8 10 10 10 2 0 7 -4 10 -10z m1289 -32 c30
-187 248 -262 392 -135 25 22 48 37 51 33 12 -12 -86 -95 -124 -105 -150 -42
-291 32 -330 172 l-16 57 -184 0 c-115 0 -183 4 -183 10 0 6 71 10 194 10
l193 0 7 -42z m-4649 11 c44 -5 100 -12 125 -15 24 -3 52 -10 61 -14 8 -5 40
-12 70 -16 30 -3 77 -12 104 -19 106 -28 241 -67 260 -76 11 -5 56 -20 100
-35 44 -14 85 -29 90 -33 6 -4 35 -15 65 -25 30 -11 60 -22 65 -27 6 -4 35
-17 65 -29 61 -24 142 -62 150 -70 3 -3 34 -18 69 -33 35 -15 90 -43 123 -62
32 -19 66 -35 74 -35 7 0 14 -4 14 -8 0 -4 14 -13 30 -19 47 -18 362 -208 394
-238 l30 -28 -50 -19 c-27 -10 -66 -33 -86 -51 l-38 -32 66 -115 c166 -287
303 -607 345 -802 28 -127 36 -368 18 -524 -8 -66 -14 -173 -14 -239 0 -112 2
-123 27 -166 15 -25 55 -72 90 -105 l63 -59 73 3 72 4 0 118 c0 179 -9 200
-148 339 -85 85 -118 112 -133 108 -13 -4 -19 0 -19 11 1 49 19 38 143 -86
161 -162 165 -170 168 -362 l2 -145 -69 3 c-67 2 -68 2 -41 -13 19 -11 58 -17
125 -18 91 -2 101 0 151 28 158 87 278 288 356 594 13 54 41 189 60 300 34
198 46 241 65 241 15 0 19 -34 23 -195 5 -168 18 -228 89 -412 33 -87 43 -104
50 -88 7 17 8 17 4 -4 -10 -52 125 -272 219 -359 93 -85 152 -112 245 -112 56
1 84 6 110 21 l35 19 -83 -2 -84 -3 4 155 c3 147 4 157 30 200 15 25 87 105
161 178 l134 134 7 -48 c3 -26 4 -50 1 -52 -3 -3 -16 0 -29 8 -23 12 -30 8
-131 -86 -147 -137 -160 -165 -160 -339 l0 -130 86 -3 86 -3 59 63 c32 35 74
91 92 125 36 67 41 127 22 253 -6 36 -10 166 -10 290 -1 320 20 432 135 722
56 138 155 339 229 461 36 59 63 114 60 122 -7 18 -61 43 -124 58 -28 6 -50
15 -50 18 0 3 21 17 48 31 26 14 76 43 112 65 57 35 137 81 495 281 44 24 84
45 90 46 6 1 21 9 35 19 13 9 29 17 33 17 5 0 37 13 71 29 33 16 81 38 106 49
25 11 61 26 80 35 19 8 71 27 115 42 44 15 89 31 100 36 11 4 39 13 62 19 23
6 70 20 105 31 35 11 90 24 123 29 56 8 93 15 105 21 14 6 69 10 210 14 85 2
151 3 145 1 -5 -2 -46 -12 -90 -21 -44 -10 -84 -22 -90 -26 -5 -5 -17 -9 -27
-9 -10 0 -37 -9 -61 -19 -23 -11 -67 -27 -97 -36 -30 -10 -61 -22 -67 -28 -7
-5 -13 -6 -13 -3 0 4 -12 1 -27 -8 -16 -8 -53 -24 -83 -36 -65 -25 -82 -33
-223 -102 l-108 -53 1 -394 c0 -217 1 -396 3 -397 1 -1 285 -3 632 -5 l629 -4
8 39 c8 40 38 89 73 118 37 32 111 49 164 37 82 -17 161 -104 161 -177 l0 -29
-592 -7 c-722 -9 -1086 -7 -1094 5 -8 13 -6 778 2 791 15 24 -43 -8 -186 -102
-173 -114 -388 -311 -536 -491 -178 -217 -332 -534 -409 -842 -31 -123 -28
-154 11 -154 15 0 21 3 15 7 -8 4 77 94 227 241 151 147 248 251 263 279 23
44 24 52 27 328 2 179 7 282 13 282 7 0 9 -97 7 -277 -4 -346 4 -324 -180
-510 -130 -131 -131 -133 -113 -153 18 -20 18 -21 -21 -61 -21 -23 -52 -50
-69 -61 -35 -23 -36 -24 115 37 190 76 395 132 640 176 108 19 160 22 385 21
275 0 367 -9 595 -58 140 -30 277 -76 430 -144 119 -53 160 -79 105 -65 -214
50 -593 126 -674 134 -419 43 -788 -28 -1106 -214 -138 -80 -139 -81 -131 -59
5 13 -2 10 -23 -10 -17 -17 -27 -32 -22 -36 5 -3 -62 -78 -150 -168 l-159
-162 54 0 c85 0 109 -8 134 -46 18 -27 29 -34 54 -34 58 0 218 33 218 45 0 6
87 97 193 202 162 161 200 193 242 207 43 15 103 18 430 23 355 4 426 0 403
-22 -3 -3 -184 -6 -403 -5 -379 0 -399 -1 -443 -20 -34 -15 -93 -69 -226 -205
-100 -102 -176 -185 -170 -185 7 0 55 9 108 20 432 89 797 115 1276 91 210
-11 494 -41 507 -55 8 -7 -163 -16 -517 -26 -399 -11 -603 -25 -704 -46 -170
-36 -550 -174 -903 -328 -134 -58 -248 -106 -254 -106 -12 0 -11 9 16 109 27
102 6 156 -66 167 -73 12 -230 -76 -344 -193 -62 -62 -72 -87 -55 -137 13 -39
49 -60 123 -70 37 -6 47 -11 47 -26 0 -26 -62 -67 -130 -87 -69 -20 -130 -50
-130 -64 0 -19 199 -6 240 15 19 10 94 76 166 147 72 71 136 129 142 129 6 0
-48 -61 -121 -135 -164 -167 -183 -177 -333 -174 l-106 2 -80 -124 c-105 -162
-195 -274 -306 -381 -87 -84 -128 -112 -184 -128 -23 -7 -16 3 40 58 69 69
150 181 178 247 22 53 37 143 29 182 l-6 33 -184 0 -185 0 0 221 c0 144 3 218
10 214 6 -4 10 -85 10 -210 l0 -204 175 -3 c112 -2 175 1 175 7 -1 19 -41 98
-60 119 -11 12 -47 51 -81 88 -34 37 -65 65 -69 63 -4 -2 -15 4 -25 15 -10 11
-15 20 -10 20 4 0 -24 31 -62 68 -62 60 -78 85 -137 206 -38 78 -72 136 -79
133 -6 -2 -29 -37 -51 -78 -83 -159 -118 -208 -231 -328 -125 -134 -157 -175
-200 -260 -74 -147 -30 -320 131 -521 42 -52 71 -96 65 -98 -18 -6 -101 58
-182 140 -92 92 -217 249 -321 403 l-75 110 -129 5 c-94 4 -137 10 -160 22
-35 19 -330 309 -305 301 9 -3 77 -65 151 -138 74 -73 151 -141 170 -151 26
-13 65 -19 145 -22 131 -5 133 9 6 35 -45 9 -97 26 -113 37 -34 23 -69 81 -62
101 3 7 33 18 67 25 103 20 112 24 115 53 5 38 -42 118 -115 197 -87 93 -146
130 -210 130 -106 0 -155 -89 -123 -225 5 -22 7 -41 5 -43 -2 -2 -95 39 -206
93 -307 146 -513 224 -779 290 -297 75 -587 111 -955 120 -345 7 -492 16 -473
26 9 5 71 19 139 31 l124 23 0 180 0 179 38 8 c57 12 112 44 146 85 38 46 53
36 17 -12 -34 -44 -64 -64 -130 -86 l-51 -18 -3 -166 -2 -165 97 7 c364 29
944 -21 1470 -126 139 -28 264 -51 279 -51 15 0 51 14 81 31 52 30 58 31 129
24 41 -4 74 -3 74 2 0 4 -84 93 -187 197 -104 104 -181 185 -173 181 47 -22
-49 42 -125 84 -206 113 -470 180 -810 206 -215 16 -587 -41 -950 -144 l-70
-20 30 24 c86 72 324 170 541 225 210 53 308 63 599 63 207 0 275 -4 395 -22
181 -27 436 -89 582 -141 120 -43 139 -48 96 -24 -30 16 -35 34 -16 64 11 17
0 31 -111 137 -67 64 -135 138 -149 163 -25 42 -27 54 -32 205 -3 88 -3 231 0
318 l5 159 -70 67 c-130 124 -219 191 -410 306 -129 78 -347 182 -450 215 -22
7 -44 16 -50 20 -5 4 -53 22 -105 38 -103 34 -124 40 -215 71 -33 12 -87 28
-120 37 -33 9 -73 20 -90 24 -45 12 101 11 200 -1z m2975 -7 c0 -34 -67 -43
-95 -12 -18 20 -17 20 38 20 32 0 57 -4 57 -8z m350 4 c0 -3 -7 -12 -16 -20
-18 -19 -65 -21 -82 -4 -22 22 -13 28 43 28 30 0 55 -2 55 -4z m-3946 -215
c10 -16 -24 -21 -149 -21 -128 0 -168 6 -143 21 18 12 285 11 292 0z m7730 0
c10 -16 -24 -21 -149 -21 -128 0 -168 6 -143 21 18 12 285 11 292 0z m-6369
-552 l0 -404 -155 -3 c-85 -2 -467 -1 -847 3 l-693 7 0 30 c0 54 48 126 105
156 41 21 102 31 134 22 20 -7 13 -8 -32 -9 -93 -2 -151 -41 -186 -128 -7 -18
-10 -40 -7 -50 6 -14 12 -10 37 20 41 50 78 50 116 2 33 -41 50 -44 63 -11 10
28 38 46 70 46 21 0 63 -35 72 -61 4 -11 8 -11 19 -2 7 7 17 9 23 4 6 -5 291
-6 634 -3 l622 5 0 394 c0 311 3 394 13 390 9 -3 12 -93 12 -408z m3845 272
c0 -84 -3 -111 -15 -121 -13 -11 -15 2 -15 107 0 66 3 123 6 126 18 17 24 -13
24 -112z m-3271 93 c13 -12 -8 -10 -29 2 l-25 15 25 -7 c14 -3 27 -8 29 -10z
m321 -66 c0 -46 3 -94 7 -107 5 -21 4 -22 -16 -12 -19 11 -21 20 -21 100 0 48
3 91 7 94 17 18 23 0 23 -75z m3320 72 c-8 -5 -24 -10 -34 -10 -10 0 -25 -8
-32 -17 -12 -17 -13 -17 -14 3 0 28 3 30 52 32 32 2 39 0 28 -8z m-1683 -92
c-3 -7 -5 -2 -5 12 0 14 2 19 5 13 2 -7 2 -19 0 -25z m-350 0 c-3 -8 -6 -5 -6
6 -1 11 2 17 5 13 3 -3 4 -12 1 -19z m350 -125 c-3 -10 -5 -2 -5 17 0 19 2 27
5 18 2 -10 2 -26 0 -35z m-350 5 c-3 -7 -5 -2 -5 12 0 14 2 19 5 13 2 -7 2
-19 0 -25z m350 -280 c-3 -7 -5 -2 -5 12 0 14 2 19 5 13 2 -7 2 -19 0 -25z
m-1257 -69 c0 -6 -4 -7 -10 -4 -5 3 -10 11 -10 16 0 6 5 7 10 4 6 -3 10 -11
10 -16z m-2649 -34 c39 -30 79 -91 78 -120 0 -12 -6 -4 -15 20 -16 44 -45 79
-89 106 -16 11 -25 19 -19 19 5 0 26 -11 45 -25z m3906 -112 c-3 -10 -5 -2 -5
17 0 19 2 27 5 18 2 -10 2 -26 0 -35z m-350 0 c-3 -10 -5 -4 -5 12 0 17 2 24
5 18 2 -7 2 -21 0 -30z m-3279 -213 c147 -34 288 -174 320 -318 14 -62 -1 -51
-22 15 -43 136 -140 235 -275 278 -86 28 -210 18 -294 -23 -115 -57 -191 -150
-224 -275 -25 -95 -23 -97 100 -97 91 0 106 2 122 20 22 24 33 25 57 3 22 -20
23 -37 2 -57 -21 -21 -36 -20 -65 5 -19 16 -35 20 -79 18 -30 -2 -81 -2 -114
-1 l-58 2 7 58 c8 69 60 183 108 237 99 114 267 169 415 135z m7124 -10 c158
-49 273 -180 301 -344 6 -36 8 -68 5 -71 -3 -4 -56 -7 -117 -7 -93 -1 -115 -4
-133 -20 -23 -19 -37 -22 -54 -10 -19 13 -23 39 -8 61 19 26 36 27 59 1 17
-19 29 -20 124 -18 l106 3 -1 53 c-4 116 -102 250 -231 314 -64 31 -74 33
-173 33 -97 0 -110 -2 -172 -32 -117 -55 -213 -177 -233 -294 -4 -21 -11 -39
-16 -39 -10 0 -2 48 18 105 43 125 174 244 300 274 66 16 158 12 225 -9z
m-3922 -176 c18 -47 -26 -88 -70 -64 -26 14 -26 44 0 70 28 28 58 26 70 -6z
m579 0 c15 -20 18 -31 11 -44 -24 -44 -90 -31 -90 18 0 55 45 69 79 26z
m-3832 0 c-3 -3 -12 -4 -19 -1 -8 3 -5 6 6 6 11 1 17 -2 13 -5z m7036 -1 c-7
-2 -19 -2 -25 0 -7 3 -2 5 12 5 14 0 19 -2 13 -5z m-6910 -53 c46 -36 99 -170
67 -170 -5 0 -10 8 -10 18 -1 30 -40 106 -73 140 -34 35 -24 43 16 12z m6797
16 c0 -2 -15 -19 -34 -39 -33 -35 -66 -110 -66 -149 0 -12 -4 -16 -11 -12 -14
8 -4 75 18 117 23 45 93 107 93 83z m-2413 -159 c-8 -13 -162 -167 -342 -343
-246 -240 -332 -330 -348 -364 -14 -31 -22 -78 -27 -155 l-8 -110 2 126 c1
118 3 128 27 165 31 46 699 717 707 710 2 -3 -2 -16 -11 -29z m-1594 -387
c180 -182 275 -286 288 -314 16 -35 18 -63 17 -186 l-2 -145 -6 145 c-4 111
-10 153 -24 180 -10 19 -164 179 -342 355 -179 176 -325 326 -324 333 0 22
105 -77 393 -368z m3959 196 c31 -39 119 -86 160 -86 l28 0 0 -195 c0 -123 -4
-195 -10 -195 -6 0 -10 68 -10 185 l0 185 -23 0 c-37 0 -125 49 -157 88 -17
20 -30 40 -30 44 0 17 16 7 42 -26z m-5682 -175 c47 -18 81 -47 245 -211 104
-104 184 -190 176 -190 -7 0 -90 79 -185 177 -128 132 -184 182 -221 199 -50
24 -51 24 -449 24 -219 -1 -401 2 -404 5 -22 22 49 26 403 22 356 -4 383 -6
435 -26z m2131 -448 c-9 -15 -10 -12 -11 18 0 20 3 39 8 43 11 12 14 -42 3
-61z m-4111 47 c0 -5 -7 -10 -16 -10 -8 0 -12 5 -9 10 3 6 10 10 16 10 5 0 9
-4 9 -10z m8610 0 c0 -5 -4 -10 -10 -10 -5 0 -10 5 -10 10 0 6 5 10 10 10 6 0
10 -4 10 -10z m-8603 -71 c16 -16 4 -49 -18 -49 -22 0 -34 22 -25 45 6 18 27
20 43 4z m8612 -3 c17 -20 3 -46 -25 -46 -18 0 -24 5 -24 23 0 38 26 50 49 23z
m-8619 -106 c0 -5 -7 -10 -16 -10 -8 0 -12 5 -9 10 3 6 10 10 16 10 5 0 9 -4
9 -10z m8610 0 c0 -5 -7 -10 -16 -10 -8 0 -12 5 -9 10 3 6 10 10 16 10 5 0 9
-4 9 -10z m-8610 -90 c0 -5 -7 -10 -16 -10 -8 0 -12 5 -9 10 3 6 10 10 16 10
5 0 9 -4 9 -10z m8610 0 c0 -5 -4 -10 -10 -10 -5 0 -10 5 -10 10 0 6 5 10 10
10 6 0 10 -4 10 -10z m-8610 -90 c0 -5 -7 -10 -15 -10 -8 0 -15 5 -15 10 0 6
7 10 15 10 8 0 15 -4 15 -10z m8610 0 c0 -5 -7 -10 -15 -10 -8 0 -15 5 -15 10
0 6 7 10 15 10 8 0 15 -4 15 -10z m-7015 -20 c3 -5 1 -10 -4 -10 -6 0 -11 5
-11 10 0 6 2 10 4 10 3 0 8 -4 11 -10z m5405 0 c0 -5 -5 -10 -11 -10 -5 0 -7
5 -4 10 3 6 8 10 11 10 2 0 4 -4 4 -10z m-7046 -116 c19 -18 20 -28 6 -55 -11
-19 -45 -25 -66 -11 -21 14 -25 45 -8 63 21 23 47 24 68 3z m4166 -189 l0
-205 -155 0 c-97 0 -155 4 -155 10 0 6 55 10 145 10 l145 0 0 188 c0 166 3
202 17 202 2 0 3 -92 3 -205z m4574 189 c32 -31 7 -78 -38 -72 -36 4 -51 37
-30 67 18 25 46 27 68 5z m-6052 -104 c283 -33 630 -251 967 -609 93 -99 129
-131 148 -131 31 0 83 -51 83 -81 0 -30 57 -89 86 -89 35 0 84 -47 84 -80 0
-22 21 -48 105 -128 111 -107 172 -147 210 -138 27 7 99 63 187 145 61 57 64
61 60 100 -3 35 0 45 27 71 27 27 37 31 76 29 57 -4 70 9 66 66 -2 39 2 49 27
75 24 24 39 30 73 30 41 0 47 4 178 133 139 137 346 308 461 383 148 95 367
191 503 220 113 23 257 15 257 -14 0 -5 -48 -15 -106 -21 -183 -21 -354 -82
-516 -186 -129 -83 -168 -131 -168 -208 0 -64 -45 -231 -81 -306 -44 -89 -160
-208 -247 -254 -66 -35 -126 -53 -325 -97 -85 -19 -106 -28 -159 -68 l-60 -47
1 -147 c2 -163 15 -228 57 -278 15 -17 24 -33 21 -36 -9 -9 -67 70 -77 106 -6
19 -10 105 -10 190 l-1 155 -50 -55 c-27 -30 -70 -83 -94 -116 l-44 -62 49
-118 c26 -66 56 -153 65 -194 20 -93 34 -461 16 -444 -6 6 -27 73 -47 150 -39
157 -120 412 -136 431 -29 35 -44 2 -108 -233 -28 -104 -63 -225 -77 -268 -22
-68 -27 -76 -37 -60 -7 12 -11 76 -11 169 0 167 6 199 81 452 51 171 51 164
-19 240 -38 41 -127 113 -141 113 -3 0 -6 -76 -6 -168 0 -162 -1 -170 -27
-222 -15 -30 -28 -49 -30 -43 -3 7 3 26 13 44 29 57 33 87 35 247 l1 157 -63
32 c-34 17 -125 55 -203 84 -223 82 -319 135 -415 228 -110 107 -147 194 -175
415 -14 108 -15 109 -58 153 -101 104 -341 201 -592 238 -111 17 -146 30 -106
39 25 6 78 11 135 14 17 1 69 -3 117 -8z m-311 -141 c19 -36 -3 -69 -46 -69
-29 0 -36 4 -41 25 -5 19 0 30 17 45 31 25 56 25 70 -1z m3994 1 c27 -30 13
-70 -24 -70 -29 0 -61 22 -61 41 0 46 53 64 85 29z m-5575 -70 c0 -5 -2 -10
-4 -10 -3 0 -8 5 -11 10 -3 6 -1 10 4 10 6 0 11 -4 11 -10z m1842 -39 c159
-41 310 -121 425 -224 l51 -47 -13 -44 c-7 -23 -20 -88 -29 -143 -14 -91 -15
-109 -1 -179 18 -98 70 -205 131 -274 l47 -51 38 37 c21 21 41 35 45 32 3 -4
-12 -22 -33 -41 l-38 -36 30 -31 c17 -18 92 -79 167 -136 75 -57 140 -109 143
-114 16 -26 -90 4 -230 65 -199 86 -376 202 -513 336 -94 93 -97 106 -39 168
67 71 81 139 51 242 -52 176 -179 298 -342 330 -128 25 -267 -3 -456 -90 -49
-23 -86 -35 -86 -28 0 20 163 171 216 199 85 46 147 59 259 54 55 -3 135 -14
177 -25z m3793 4 c33 -9 89 -35 125 -58 77 -50 201 -168 182 -174 -7 -3 -64
18 -127 46 -143 64 -208 81 -306 81 -86 0 -173 -23 -242 -63 -60 -36 -146
-131 -180 -201 -33 -67 -45 -169 -28 -233 12 -44 54 -103 74 -103 7 0 18 -4
26 -9 12 -8 10 -16 -13 -50 -49 -70 -201 -208 -305 -276 -150 -98 -370 -201
-474 -220 -59 -11 -40 10 96 110 144 106 291 249 330 322 38 71 67 192 67 277
0 39 -9 120 -20 181 -10 60 -17 113 -14 117 11 18 197 134 284 177 116 58 170
79 235 91 67 12 216 4 290 -15z m-5665 -41 c0 -40 -3 -55 -12 -52 -25 9 -33
54 -14 82 9 14 19 26 21 26 3 0 5 -25 5 -56z m7180 4 c0 -24 -18 -58 -30 -58
-6 0 -10 25 -10 57 0 55 0 56 20 38 11 -10 20 -27 20 -37z m-7112 30 c23 -23
9 -88 -20 -88 -4 0 -8 23 -8 50 0 51 6 60 28 38z m7032 -38 c0 -52 -12 -64
-30 -31 -13 26 -13 54 2 69 22 22 28 13 28 -38z m-4325 10 c4 -6 -35 -10 -109
-10 -66 0 -117 4 -121 10 -4 6 35 10 109 10 66 0 117 -4 121 -10z m1870 0 c4
-6 -42 -10 -130 -10 -88 0 -134 4 -130 10 4 6 58 10 130 10 72 0 126 -4 130
-10z m-4645 -357 l-1 -58 -19 24 c-22 26 -25 44 -10 72 19 34 30 20 30 -38z
m68 45 c23 -23 9 -88 -20 -88 -4 0 -8 23 -8 50 0 51 6 60 28 38z m7032 -38 c0
-51 -6 -60 -28 -38 -15 15 -15 43 -2 69 18 33 30 21 30 -31z m70 31 c15 -30
12 -56 -10 -76 -20 -18 -20 -17 -20 38 0 58 11 72 30 38z m-4125 -41 c4 -6
-15 -10 -49 -10 -30 0 -58 5 -61 10 -4 6 15 10 49 10 30 0 58 -4 61 -10z m355
-231 c0 -157 -3 -238 -10 -234 -6 4 -10 92 -10 231 l0 224 -99 0 c-56 0 -103
4 -106 10 -4 6 35 10 109 10 l116 0 0 -241z m595 231 c-4 -6 -55 -10 -121 -10
l-114 0 0 -239 c0 -149 -4 -242 -10 -246 -7 -4 -10 82 -10 249 l0 256 131 0
c84 0 128 -4 124 -10z m260 0 c-3 -5 -38 -10 -76 -10 -44 0 -68 4 -64 10 3 6
38 10 76 10 44 0 68 -4 64 -10z m-4225 -70 c0 -5 -5 -10 -11 -10 -5 0 -7 5 -4
10 3 6 8 10 11 10 2 0 4 -4 4 -10z m1580 -20 c14 -26 5 -57 -21 -70 -15 -9
-24 -6 -44 14 -14 14 -25 31 -25 39 0 39 71 52 90 17z m4008 -11 c4 -35 -41
-74 -68 -59 -27 14 -32 40 -15 67 13 19 23 23 48 21 26 -2 33 -8 35 -29z
m-3118 -8 c0 -4 -20 -16 -45 -25 -25 -10 -47 -22 -51 -27 -9 -15 83 -138 165
-219 76 -76 201 -165 298 -214 29 -14 55 -26 58 -26 3 0 5 36 5 80 l0 80 -137
2 -138 2 140 6 c77 3 142 4 144 3 2 -1 3 -42 2 -91 l-2 -89 113 -33 c214 -62
222 -69 188 -170 -41 -121 -21 -539 36 -770 19 -74 28 -141 31 -225 4 -111 2
-123 -19 -159 -29 -50 -54 -61 -44 -20 9 37 18 193 10 177 -10 -22 -24 -14
-24 13 0 16 4 23 11 18 17 -10 5 35 -71 271 -37 116 -75 244 -83 285 -9 41
-28 131 -43 199 -34 164 -56 222 -93 244 -35 21 -41 21 -41 3 0 -16 -38 -66
-51 -66 -5 0 5 19 22 43 l31 42 -33 25 c-289 219 -431 376 -474 524 -19 66
-13 83 39 107 46 21 56 23 56 10z m2221 -23 c48 -27 57 -55 35 -111 -50 -133
-191 -295 -401 -461 -124 -99 -183 -154 -200 -186 -16 -31 -51 -185 -60 -265
-7 -63 -43 -188 -125 -440 -58 -180 -79 -301 -63 -372 15 -62 2 -75 -28 -26
-36 58 -33 210 8 403 46 215 57 315 57 520 0 171 -1 189 -22 235 -41 89 -26
103 153 154 123 35 264 99 356 162 80 54 69 61 -93 57 l-123 -3 -6 -85 -5 -85
-2 93 -2 92 143 0 c85 0 147 -4 153 -10 16 -16 150 119 212 211 l51 77 -57 31
c-31 17 -49 31 -38 31 10 0 36 -10 57 -22z m-2374 -86 c-20 -20 -37 -32 -37
-27 0 16 60 78 68 71 3 -4 -11 -23 -31 -44z m2523 -65 c0 -6 -20 9 -45 33 -25
24 -45 51 -45 60 1 17 90 -75 90 -93z m-5630 -47 c22 -41 -13 -80 -59 -65 -43
13 -23 85 24 85 14 0 29 -9 35 -20z m8740 1 c14 -27 13 -37 -6 -55 -23 -23
-51 -20 -69 8 -13 19 -14 29 -5 45 14 28 65 29 80 2z m-6270 -537 c-226 -226
-402 -394 -425 -406 -54 -28 -182 -37 -557 -37 -271 -1 -331 4 -298 24 5 3
187 6 405 5 l395 0 48 24 c46 23 142 119 682 679 79 82 117 114 124 107 7 -7
-106 -127 -374 -396z m3642 114 c448 -464 470 -486 520 -508 44 -19 64 -20
443 -20 219 1 400 -2 403 -5 3 -3 1 -10 -6 -17 -8 -8 -118 -9 -394 -6 -360 5
-386 7 -438 27 -49 19 -94 60 -432 398 -207 207 -375 380 -372 385 3 4 9 8 14
8 4 0 122 -118 262 -262z m928 252 c0 -5 -2 -10 -4 -10 -3 0 -8 5 -11 10 -3 6
-1 10 4 10 6 0 11 -4 11 -10z m-7000 -20 c0 -5 -7 -10 -15 -10 -8 0 -15 5 -15
10 0 6 7 10 15 10 8 0 15 -4 15 -10z m5360 -35 c24 -25 40 -45 34 -45 -5 0
-30 20 -54 45 -24 25 -40 45 -34 45 5 0 30 -20 54 -45z m3250 35 c0 -5 -7 -10
-15 -10 -8 0 -15 5 -15 10 0 6 7 10 15 10 8 0 15 -4 15 -10z m-8610 -90 c0 -5
-4 -10 -9 -10 -6 0 -13 5 -16 10 -3 6 1 10 9 10 9 0 16 -4 16 -10z m8610 0 c0
-5 -4 -10 -10 -10 -5 0 -10 5 -10 10 0 6 5 10 10 10 6 0 10 -4 10 -10z m-4490
-166 c0 -76 -4 -124 -10 -124 -6 0 -10 50 -10 131 0 84 4 128 10 124 6 -4 10
-58 10 -131z m-4120 76 c0 -5 -4 -10 -10 -10 -5 0 -10 5 -10 10 0 6 5 10 10
10 6 0 10 -4 10 -10z m3088 -15 c-9 -19 -9 -28 0 -37 7 -7 12 -18 12 -26 0
-18 -529 -552 -547 -552 -7 0 -22 5 -32 12 -17 10 -33 -2 -141 -115 -87 -90
-136 -134 -174 -152 l-52 -26 -489 -2 -489 -2 -12 -67 c-26 -138 -120 -259
-251 -321 -63 -30 -75 -32 -173 -32 -97 1 -110 3 -173 32 -130 61 -235 204
-252 346 l-7 57 63 2 c35 1 88 0 117 -1 44 -2 57 1 73 18 24 25 42 27 63 5 20
-20 20 -33 -1 -56 -21 -23 -36 -23 -58 2 -16 18 -29 20 -124 18 l-106 -3 1
-40 c4 -142 119 -288 273 -346 47 -17 72 -20 151 -17 119 5 189 36 271 117 65
66 94 121 115 222 8 40 16 75 18 76 2 2 225 4 497 6 484 2 495 2 534 24 36 19
617 593 810 801 80 85 103 101 83 57z m1392 -80 c0 -63 -4 -105 -10 -105 -11
0 -14 192 -3 203 12 13 13 7 13 -98z m4130 95 c0 -5 -4 -10 -10 -10 -5 0 -10
5 -10 10 0 6 5 10 10 10 6 0 10 -4 10 -10z m-2681 -431 c249 -253 430 -429
455 -442 40 -22 48 -22 531 -24 270 -2 495 -5 501 -7 6 -2 14 -30 17 -61 13
-129 108 -258 235 -318 62 -30 75 -32 172 -32 99 0 109 2 173 33 130 64 228
197 231 315 l1 52 -104 3 c-94 2 -106 1 -123 -18 -24 -26 -43 -25 -62 2 -13
19 -14 25 -2 43 18 27 38 29 64 6 19 -16 39 -19 133 -19 61 -1 114 -4 117 -7
11 -11 -16 -134 -42 -190 -35 -78 -127 -167 -213 -208 -63 -30 -75 -32 -174
-32 -101 0 -108 1 -181 38 -129 63 -217 180 -242 322 l-11 60 -485 2 c-426 2
-490 4 -530 19 -35 13 -76 49 -178 153 -120 123 -134 135 -152 123 -11 -6 -26
-12 -34 -12 -17 0 -546 539 -546 556 0 6 6 17 14 24 8 6 12 18 9 26 -3 8 -1
14 3 14 5 0 195 -189 423 -421z m-5921 344 c-3 -31 -34 -44 -44 -19 -9 24 3
46 26 46 17 0 21 -5 18 -27z m8616 11 c7 -19 -10 -44 -31 -44 -17 0 -27 24
-19 45 7 20 42 19 50 -1z m-3404 -249 c9 8 22 15 29 15 7 0 137 -123 289 -274
268 -265 276 -275 259 -293 -9 -11 -17 -22 -17 -25 0 -2 56 -61 125 -129 90
-88 134 -140 153 -179 l27 -55 2 -475 c1 -261 2 -480 3 -486 0 -7 25 -15 55
-19 107 -13 239 -99 301 -197 86 -135 83 -329 -7 -464 -63 -94 -196 -175 -311
-189 l-58 -7 -1 73 c0 41 0 94 1 119 1 35 -4 50 -19 64 -25 23 -26 39 -5 60
20 20 38 20 58 0 21 -20 20 -36 -4 -63 -16 -20 -19 -36 -17 -124 2 -98 3 -102
25 -105 43 -6 158 36 219 82 66 48 112 111 144 195 30 81 24 222 -13 303 -31
67 -91 135 -158 178 -56 36 -94 49 -170 58 l-55 7 -5 500 c-5 492 -5 501 -27
541 -13 25 -173 191 -395 410 -205 203 -444 439 -530 524 -87 86 -158 161
-158 167 0 6 55 -42 122 -108 110 -107 123 -117 138 -104z m-5220 151 c0 -11
-19 -15 -25 -6 -3 5 1 10 9 10 9 0 16 -2 16 -4z m8610 -6 c0 -5 -4 -10 -10
-10 -5 0 -10 5 -10 10 0 6 5 10 10 10 6 0 10 -4 10 -10z m-5557 -507 c-496
-492 -513 -510 -528 -562 -12 -45 -15 -133 -14 -522 1 -257 -2 -473 -6 -478
-3 -6 -23 -11 -44 -11 -56 0 -150 -35 -206 -78 -70 -53 -122 -125 -146 -205
-72 -234 68 -473 309 -529 79 -18 82 -14 82 104 0 89 -3 104 -21 124 -37 40 2
90 51 64 24 -13 26 -43 4 -65 -13 -12 -16 -40 -18 -133 l-1 -117 -53 3 c-151
8 -305 123 -363 269 -18 46 -23 78 -23 158 -1 92 1 105 31 168 62 131 183 225
320 250 l68 12 2 480 c2 410 5 486 19 530 14 43 35 69 152 183 123 120 135
134 124 152 -6 11 -12 26 -12 34 0 16 537 546 553 546 6 0 18 -7 28 -16 17
-15 23 -11 100 65 46 45 87 81 93 81 6 0 -220 -228 -501 -507z m3822 476 c11
-17 -1 -21 -15 -4 -8 9 -8 15 -2 15 6 0 14 -5 17 -11z m-6125 -249 c0 -136 3
-182 13 -184 60 -18 115 -43 142 -68 84 -73 109 -205 59 -306 -25 -50 -65 -92
-87 -92 -6 0 3 15 20 33 134 137 73 353 -113 401 l-49 12 -3 192 c-1 126 1
192 8 192 6 0 10 -64 10 -180z m7100 -14 l0 -194 -44 -6 c-180 -27 -257 -258
-130 -393 19 -20 32 -38 29 -41 -10 -11 -56 31 -82 75 -24 42 -28 58 -28 128
0 70 4 86 28 128 35 58 91 101 157 118 l50 13 0 183 c0 115 4 183 10 183 6 0
10 -71 10 -194z m-2855 -62 c-57 -112 -89 -227 -114 -402 -17 -115 -18 -154
-10 -242 11 -123 12 -125 39 -140 18 -10 28 -4 80 46 l59 56 44 -68 c75 -116
129 -223 121 -236 -4 -7 -35 -44 -69 -83 -101 -115 -156 -193 -266 -376 -123
-207 -280 -493 -311 -566 -12 -29 -25 -53 -30 -53 -18 0 -6 63 32 174 62 180
156 379 337 719 99 185 106 219 54 250 l-33 20 -79 -26 c-106 -36 -110 -36
-104 11 3 20 10 120 15 221 17 298 79 566 156 682 27 39 112 115 120 106 2 -2
-17 -43 -41 -93z m-1365 49 c109 -98 195 -417 215 -793 7 -146 -1 -184 -39
-188 -16 -2 -54 6 -86 18 -56 21 -60 21 -94 5 -20 -10 -39 -21 -41 -25 -5 -8
79 -178 238 -480 128 -243 234 -513 225 -571 -2 -19 -22 8 -82 116 -277 492
-328 575 -460 743 -54 70 -103 137 -109 149 -14 30 10 91 75 190 81 126 73
122 134 62 38 -37 58 -50 75 -47 38 5 43 54 31 292 -13 250 -26 308 -116 509
-14 31 -21 57 -16 57 6 0 28 -16 50 -37z m114 -27 c-24 -29 -42 -42 -48 -36
-6 6 7 24 35 49 24 21 46 37 48 36 1 -2 -14 -24 -35 -49z m1156 -43 c0 -23
-17 -14 -49 26 -42 52 -39 58 9 20 22 -18 40 -38 40 -46z m-1403 -208 c-78
-77 -251 -245 -383 -373 -196 -189 -246 -242 -263 -282 -21 -48 -21 -63 -20
-441 0 -215 -2 -393 -5 -396 -2 -3 -10 -2 -17 2 -9 6 -10 97 -6 389 4 325 8
388 22 431 16 44 61 93 408 442 266 267 394 389 399 380 5 -8 -40 -59 -135
-152z m1859 -237 c328 -329 384 -390 400 -432 16 -44 18 -88 18 -435 1 -248
-3 -388 -9 -391 -7 -3 -12 137 -15 405 -5 400 -6 411 -27 452 -14 26 -161 175
-390 398 -333 322 -393 385 -366 385 5 0 180 -172 389 -382z m-796 -119 c0
-24 -4 -38 -10 -34 -17 10 -11 75 7 75 2 0 3 -18 3 -41z m-93 -261 c-3 -8 -6
-5 -6 6 -1 11 2 17 5 13 3 -3 4 -12 1 -19z m-2554 -98 l27 0 0 -327 c0 -181
-3 -561 -7 -845 l-6 -518 -29 0 c-41 0 -101 34 -137 77 -98 118 -29 295 128
328 l34 7 -6 202 c-4 110 -7 393 -7 627 l0 426 -622 5 c-343 3 -627 2 -632 -3
-5 -5 -16 -3 -24 4 -12 10 -16 9 -20 -2 -9 -26 -50 -61 -72 -61 -32 0 -60 18
-70 46 -12 30 -36 31 -51 2 -32 -60 -84 -64 -128 -11 -25 30 -31 34 -37 20 -7
-19 10 -68 39 -110 28 -41 87 -67 154 -68 48 0 54 -2 34 -10 -38 -15 -121 6
-164 42 -44 36 -77 96 -77 138 l0 31 348 3 c191 1 561 2 822 0 261 -2 487 -3
503 -3z m6080 3 l347 -3 0 -31 c0 -17 -7 -46 -16 -65 -17 -36 -86 -104 -106
-104 -6 0 8 14 31 31 43 31 80 94 81 137 0 31 -17 28 -34 -7 -28 -54 -83 -56
-123 -6 -15 19 -32 35 -38 35 -5 0 -18 -13 -27 -30 -30 -52 -107 -50 -128 5
-13 33 -30 32 -30 -3 0 -41 32 -93 79 -129 49 -38 41 -45 -8 -9 -44 33 -63 61
-77 116 l-11 45 -629 -4 c-346 -2 -630 -4 -630 -5 -1 0 -4 -282 -6 -624 l-5
-624 26 -10 c109 -42 145 -74 170 -147 14 -42 14 -65 0 -114 -20 -73 -110
-147 -179 -147 l-30 0 0 343 c-1 500 -1 1299 0 1324 0 15 7 23 23 25 26 4 829
4 1320 1z m-7377 -117 c-25 -43 -91 -95 -103 -82 -4 3 -1 6 5 6 25 0 92 73
104 114 8 25 14 34 16 23 2 -10 -8 -37 -22 -61z m4152 40 c28 -14 56 -35 63
-47 25 -48 -19 -150 -83 -192 -66 -43 -128 -48 -100 -9 42 58 52 80 50 107 -3
27 -6 30 -44 33 -32 2 -48 -2 -71 -22 -61 -51 -93 -171 -61 -229 6 -12 38 -52
70 -90 62 -72 69 -92 39 -102 -43 -13 -224 -263 -285 -393 -16 -34 -32 -62
-35 -62 -3 0 -23 33 -44 73 -47 89 -140 220 -232 326 -38 45 -71 86 -73 91 -2
6 23 38 56 72 74 79 82 94 82 160 0 63 -27 126 -65 156 -30 24 -84 29 -103 10
-18 -18 -14 -69 8 -103 24 -36 25 -45 5 -45 -52 0 -175 109 -175 155 0 27 76
100 125 121 85 35 181 7 258 -75 59 -63 86 -117 93 -188 6 -59 2 -75 -52 -214
-22 -57 -12 -88 38 -119 44 -27 97 -25 139 3 44 30 48 64 15 152 -30 78 -32
118 -11 200 57 218 224 316 393 231z m-651 2 c-3 -8 -6 -5 -6 6 -1 11 2 17 5
13 3 -3 4 -12 1 -19z m350 -15 c-3 -10 -5 -4 -5 12 0 17 2 24 5 18 2 -7 2 -21
0 -30z m-1264 -128 c-3 -9 -8 -14 -10 -11 -3 3 -2 9 2 15 9 16 15 13 8 -4z
m4963 4 c-25 -6 -49 -6 -65 0 -21 8 -13 9 39 9 62 0 63 0 26 -9z m-7613 -728
c16 -1 26 -5 22 -11 -7 -12 -264 -14 -292 -2 -32 13 102 20 270 13z m7750 0
c5 -1 5 -5 2 -11 -8 -13 -292 -13 -300 -1 -3 5 5 11 17 13 19 3 257 2 281 -1z
m-5693 -22 c77 -35 118 -85 144 -173 l12 -41 187 -3 c119 -1 186 -6 182 -12
-4 -6 -85 -10 -201 -10 l-194 0 0 28 c0 43 -44 126 -84 159 -93 77 -233 68
-323 -20 -24 -22 -33 -26 -33 -15 0 21 53 66 105 89 55 25 147 24 205 -2z
m3553 10 c38 -10 136 -93 124 -105 -3 -4 -26 11 -51 33 -79 69 -175 82 -267
36 -64 -33 -114 -100 -125 -168 l-6 -45 -194 0 c-123 0 -194 4 -194 10 0 6 68
10 183 10 l182 0 17 58 c42 140 182 213 331 171z m-2005 -191 c22 -22 13 -28
-38 -28 -27 0 -50 4 -50 8 0 29 65 43 88 20z m348 -5 c17 -17 15 -18 -35 -21
-60 -4 -69 1 -51 23 17 20 64 19 86 -2z m-456 -37 c0 -3 -4 -8 -10 -11 -5 -3
-10 -1 -10 4 0 6 5 11 10 11 6 0 10 -2 10 -4z m500 -6 c0 -5 -2 -10 -4 -10 -3
0 -8 5 -11 10 -3 6 -1 10 4 10 6 0 11 -4 11 -10z m-380 -30 c0 -20 -48 -34
-75 -22 -40 18 -29 32 25 32 28 0 50 -5 50 -10z m331 -10 c-26 -22 -44 -25
-72 -10 -34 19 -20 30 39 30 l57 -1 -24 -19z m-3507 -278 c-3 -166 -2 -160
-14 -142 -11 17 -14 269 -3 296 13 35 19 -14 17 -154z m6616 1 c0 -84 -4 -144
-10 -148 -7 -4 -10 51 -10 157 0 109 4 158 10 148 5 -8 10 -79 10 -157z
m-7231 -75 c-2 -30 -2 -30 -6 -6 -3 20 -11 28 -31 31 -24 4 -24 4 6 6 30 1 32
-1 31 -31z m7859 25 c-20 -3 -28 -11 -31 -31 -4 -24 -4 -24 -6 6 -1 30 1 32
32 31 29 -2 29 -2 5 -6z m-6901 -359 c-3 -3 -12 -4 -19 -1 -8 3 -5 6 6 6 11 1
17 -2 13 -5z m91 -1 c-10 -2 -28 -2 -40 0 -13 2 -5 4 17 4 22 1 32 -1 23 -4z
m125 0 c-18 -2 -48 -2 -65 0 -18 2 -4 4 32 4 36 0 50 -2 33 -4z m70 0 c-7 -2
-19 -2 -25 0 -7 3 -2 5 12 5 14 0 19 -2 13 -5z m75 0 c-10 -2 -28 -2 -40 0
-13 2 -5 4 17 4 22 1 32 -1 23 -4z m160 0 c-21 -2 -57 -2 -80 0 -24 2 -7 4 37
4 44 0 63 -2 43 -4z m105 0 c-13 -2 -33 -2 -45 0 -13 2 -3 4 22 4 25 0 35 -2
23 -4z m115 0 c-16 -2 -40 -2 -55 0 -16 2 -3 4 27 4 30 0 43 -2 28 -4z m100 0
c-10 -2 -26 -2 -35 0 -10 3 -2 5 17 5 19 0 27 -2 18 -5z m1160 -2 c21 -13 10
-46 -16 -49 -27 -4 -40 22 -22 43 14 17 20 18 38 6z m1942 -6 c18 -21 5 -47
-22 -43 -26 3 -37 36 -16 49 18 12 24 11 38 -6z m1163 8 c-7 -2 -19 -2 -25 0
-7 3 -2 5 12 5 14 0 19 -2 13 -5z m120 0 c-18 -2 -48 -2 -65 0 -18 2 -4 4 32
4 36 0 50 -2 33 -4z m105 0 c-10 -2 -28 -2 -40 0 -13 2 -5 4 17 4 22 1 32 -1
23 -4z m65 0 c-7 -2 -21 -2 -30 0 -10 3 -4 5 12 5 17 0 24 -2 18 -5z m100 0
c-13 -2 -35 -2 -50 0 -16 2 -5 4 22 4 28 0 40 -2 28 -4z m130 0 c-18 -2 -48
-2 -65 0 -18 2 -4 4 32 4 36 0 50 -2 33 -4z m130 0 c-18 -2 -48 -2 -65 0 -18
2 -4 4 32 4 36 0 50 -2 33 -4z m115 0 c-10 -2 -28 -2 -40 0 -13 2 -5 4 17 4
22 1 32 -1 23 -4z m79 1 c-3 -3 -12 -4 -19 -1 -8 3 -5 6 6 6 11 1 17 -2 13 -5z
m-4051 -41 c-10 -10 -19 5 -10 18 6 11 8 11 12 0 2 -7 1 -15 -2 -18z m184 12
c0 -8 -4 -15 -10 -15 -5 0 -10 7 -10 15 0 8 5 15 10 15 6 0 10 -7 10 -15z m90
-1 c0 -8 -4 -12 -10 -9 -5 3 -10 10 -10 16 0 5 5 9 10 9 6 0 10 -7 10 -16z
m90 1 c0 -8 -4 -15 -10 -15 -5 0 -10 7 -10 15 0 8 5 15 10 15 6 0 10 -7 10
-15z m1400 0 c0 -8 -4 -15 -10 -15 -5 0 -10 7 -10 15 0 8 5 15 10 15 6 0 10
-7 10 -15z m90 0 c0 -8 -4 -15 -10 -15 -5 0 -10 7 -10 15 0 8 5 15 10 15 6 0
10 -7 10 -15z m90 0 c0 -8 -4 -15 -10 -15 -5 0 -10 7 -10 15 0 8 5 15 10 15 6
0 10 -7 10 -15z m180 0 c0 -8 -4 -15 -10 -15 -5 0 -10 7 -10 15 0 8 5 15 10
15 6 0 10 -7 10 -15z m-1579 -25 c26 -14 24 -55 -3 -74 -19 -13 -25 -14 -43
-2 -27 18 -31 43 -9 67 20 22 28 23 55 9z m1073 -6 c41 -40 -6 -101 -53 -68
-25 18 -28 59 -3 73 24 15 38 13 56 -5z"/>
<path d="M2050 8497 c-52 -25 -80 -50 -101 -93 -45 -95 -8 -211 82 -256 67
-34 121 -21 59 14 -52 30 -50 107 5 128 34 13 32 35 -5 57 -53 31 -53 95 0
126 50 30 16 50 -40 24z"/>
<path d="M6866 8501 c-4 -5 7 -17 24 -26 53 -27 53 -103 0 -130 -36 -19 -39
-42 -6 -55 50 -19 62 -86 20 -119 -14 -11 -30 -22 -37 -24 -8 -3 -9 -8 -2 -16
27 -29 138 37 171 102 40 76 9 194 -64 242 -43 29 -97 42 -106 26z"/>
<path d="M2711 6933 c0 -226 3 -293 15 -335 15 -49 33 -70 225 -264 115 -115
206 -214 202 -218 -5 -4 -3 -7 2 -5 6 1 23 -3 38 -9 39 -16 56 -15 64 4 10 27
-15 139 -66 294 -101 305 -246 566 -414 745 l-66 70 0 -282z"/>
<path d="M8255 7014 c-43 -22 -64 -44 -86 -86 -20 -40 -25 -88 -9 -88 5 0 16
13 24 29 28 54 75 55 122 4 l34 -37 31 37 c43 52 96 51 125 -4 21 -41 38 -37
31 7 -9 52 -51 110 -97 134 -48 24 -132 26 -175 4z"/>
<path d="M3050 6150 c8 -5 20 -10 25 -10 6 0 3 5 -5 10 -8 5 -19 10 -25 10 -5
0 -3 -5 5 -10z"/>
<path d="M5820 6070 c-19 -11 -30 -19 -25 -19 6 0 26 8 45 19 19 11 31 19 25
19 -5 0 -26 -8 -45 -19z"/>
<path d="M2770 5962 c0 -39 5 -74 10 -77 7 -4 8 8 4 37 l-6 43 195 -194 c108
-107 193 -199 190 -204 -3 -5 8 -2 24 7 91 47 83 145 -20 250 -51 52 -85 75
-193 129 -72 36 -147 69 -167 72 l-37 7 0 -70z"/>
<path d="M6160 5995 c-149 -41 -219 -75 -287 -138 -34 -32 -71 -77 -82 -101
-27 -56 -28 -125 -1 -159 l21 -26 201 204 c110 113 208 205 217 205 10 0 22
-5 29 -12 17 -17 28 18 12 37 -15 18 -7 19 -110 -10z"/>
<path d="M5858 5563 c7 -3 16 -2 19 1 4 3 -2 6 -13 5 -11 0 -14 -3 -6 -6z"/>
<path d="M4790 4966 c0 -2 8 -10 18 -17 15 -13 16 -12 3 4 -13 16 -21 21 -21
13z"/>
<path d="M3522 4458 c-18 -24 -23 -58 -17 -111 l7 -52 54 3 c34 3 54 0 54 -7
0 -7 -21 -11 -50 -11 -30 0 -50 -4 -50 -11 0 -6 14 -38 32 -71 44 -83 129
-145 255 -187 67 -23 143 -28 143 -10 0 12 -131 168 -179 213 l-31 30 -25 -24
c-21 -19 -29 -22 -48 -13 -20 9 -25 21 -31 69 -10 90 -26 141 -52 169 -25 27
-46 32 -62 13z m216 -275 c-32 -2 -84 -2 -115 0 -32 2 -6 3 57 3 63 0 89 -1
58 -3z"/>
<path d="M5438 4433 c-37 -40 -47 -64 -53 -129 -12 -116 -15 -120 -85 -84
l-40 20 -37 -41 c-60 -66 -153 -190 -153 -204 0 -24 29 -25 97 -4 148 46 247
116 303 214 16 29 30 58 30 64 0 7 -21 11 -55 11 -33 0 -55 4 -55 11 0 7 21
10 60 7 l60 -3 11 54 c10 48 9 56 -9 80 -26 36 -43 36 -74 4z m-40 -250 c-32
-2 -86 -2 -120 0 -35 2 -9 3 57 3 66 0 94 -1 63 -3z"/>
<path d="M3985 4141 c21 -23 41 -41 42 -41 2 0 -3 13 -11 28 -8 15 -27 34 -43
41 -26 12 -25 10 12 -28z"/>
<path d="M5004 4166 c-31 -14 -54 -56 -54 -100 0 -16 12 -9 60 39 33 33 60 63
60 67 0 12 -31 9 -66 -6z"/>
<path d="M4155 3971 c21 -23 41 -41 42 -41 2 0 -3 13 -11 28 -8 15 -27 34 -43
41 -26 12 -25 10 12 -28z"/>
<path d="M4828 3995 c-25 -14 -54 -73 -46 -95 2 -5 32 17 68 50 64 58 64 59
35 59 -16 0 -42 -6 -57 -14z"/>
<path d="M2055 804 c-47 -17 -88 -55 -110 -99 -34 -72 -8 -187 52 -232 43 -31
101 -49 114 -36 8 8 6 14 -9 22 -63 34 -70 86 -17 128 41 33 44 50 10 63 -54
21 -57 101 -5 127 25 12 33 34 15 39 -5 1 -28 -4 -50 -12z"/>
<path d="M6864 808 c-4 -6 -2 -14 4 -16 31 -10 62 -45 62 -71 0 -31 -25 -71
-44 -71 -12 0 -26 -20 -26 -36 0 -2 13 -10 30 -19 53 -27 53 -103 0 -130 -38
-20 -29 -39 14 -31 85 17 150 100 149 191 0 84 -50 151 -132 180 -52 18 -48
18 -57 3z"/>
</g>
</svg>
